<svg xmlns="http://www.w3.org/2000/svg" width="1200" height="280" viewBox="0 0 1200 280" role="img" aria-labelledby="title desc">
  <title id="title">erdscope</title>
  <desc id="desc">erdscope — explore the schema you have</desc>
  <defs>
    <linearGradient id="bg" x1="40" y1="20" x2="1160" y2="260" gradientUnits="userSpaceOnUse">
      <stop stop-color="#0F172A"/>
      <stop offset=".58" stop-color="#172554"/>
      <stop offset="1" stop-color="#0F766E"/>
    </linearGradient>
    <linearGradient id="scope" x1="82" y1="48" x2="270" y2="230" gradientUnits="userSpaceOnUse">
      <stop stop-color="#2DD4BF"/>
      <stop offset="1" stop-color="#3B82F6"/>
    </linearGradient>
    <pattern id="grid" width="32" height="32" patternUnits="userSpaceOnUse">
      <path d="M32 0H0v32" fill="none" stroke="#fff" stroke-opacity=".045"/>
    </pattern>
    <filter id="shadow" x="-20%" y="-20%" width="150%" height="160%">
      <feDropShadow dx="0" dy="8" stdDeviation="10" flood-color="#020617" flood-opacity=".35"/>
    </filter>
  </defs>
  <rect width="1200" height="280" rx="28" fill="url(#bg)"/>
  <rect width="1200" height="280" rx="28" fill="url(#grid)"/>
  <circle cx="1110" cy="-10" r="190" fill="#2DD4BF" fill-opacity=".07"/>
  <circle cx="1020" cy="310" r="220" fill="#3B82F6" fill-opacity=".08"/>
  <g transform="translate(58 24)" filter="url(#shadow)">
    <circle cx="112" cy="112" r="88" fill="#F8FAFC" stroke="url(#scope)" stroke-width="13"/>
    <path d="M174 174l45 45" fill="none" stroke="#3B82F6" stroke-width="17" stroke-linecap="round"/>
    <path d="M78 85h68M78 109h34M106 109v32M106 141h48" fill="none" stroke="#94A3B8" stroke-width="6" stroke-linecap="round" stroke-linejoin="round"/>
    <rect x="57" y="64" width="42" height="42" rx="9" fill="#0F172A"/>
    <rect x="125" y="64" width="42" height="42" rx="9" fill="#14B8A6"/>
    <rect x="85" y="130" width="42" height="42" rx="9" fill="#2563EB"/>
    <path d="M67 77h22M67 85h22M67 93h14M135 77h22M135 85h22M135 93h14M95 143h22M95 151h22M95 159h14" stroke="#fff" stroke-width="3" stroke-linecap="round" opacity=".94"/>
  </g>
  <text x="340" y="155" fill="#fff" font-family="ui-monospace, SFMono-Regular, Menlo, Consolas, monospace" font-size="106" font-weight="750" letter-spacing="-6">erd<tspan fill="#2DD4BF">scope</tspan></text>
  <text x="349" y="202" fill="#CBD5E1" font-family="ui-sans-serif, system-ui, -apple-system, sans-serif" font-size="22" font-weight="650" letter-spacing="5.8">EXPLORE THE SCHEMA YOU HAVE</text>
</svg>
