<svg xmlns="http://www.w3.org/2000/svg" width="924" height="792" viewBox="-461.6 -396 923.2 792"><style>
.er-node .n-shadow{fill:rgba(0,0,0,.07)}
.er-node .n-bg{fill:#fff;stroke:#cbd5e1;stroke-width:1}
.er-node.sel .n-bg{stroke:#3b82f6;stroke-width:2}
.er-node .n-hdr{fill:#1e293b}
.er-node.ring-1 .n-hdr{fill:#1e3a5f}
.er-node.ring-2 .n-hdr{fill:#374151}
.er-node.ring-3 .n-hdr{fill:#4b5563}
.er-node .n-title{fill:#f8fafc;font-size:12px;font-weight:bold;font-family:monospace}
.er-node .n-alt{fill:#f8fafc}
.er-node .n-colhit{fill:#fef3c7}
.er-node .n-cn{fill:#1e293b;font-size:11px;font-family:monospace}
.er-node .n-ct{fill:#64748b;font-size:10px;font-family:monospace}
.er-node .n-bpk{fill:#fef08a}.er-node .n-bfk{fill:#bfdbfe}
.er-node .n-tpk{fill:#713f12;font-size:9px;font-weight:bold}
.er-node .n-tfk{fill:#1e3a5f;font-size:9px;font-weight:bold}
.er-node .n-more{fill:#94a3b8;font-size:10px}
.er-node .n-mode{display:none}
.er-node.auto .n-hdr{fill:#64748b}
.er-node.auto .n-bg{stroke-dasharray:5 3}
.er-node .n-root{fill:#4ade80;font-size:11px;font-weight:bold}
.er-node .n-sctrack{fill:#e2e8f0}
.er-node .n-scthumb{fill:#94a3b8}
.er-edge path{fill:none;stroke:#64748b;stroke-width:1.5;opacity:.75}
.er-edge.t-nn path{stroke-dasharray:6 3}
.er-edge.inf path{opacity:.4;stroke-dasharray:2 4}
.er-edge.hl path{stroke:#2563eb;stroke-width:2;opacity:1}
.er-edge.hl .e-ltxt{fill:#2563eb}
.er-edge .e-lbg{fill:white;opacity:.88}
.er-edge .e-ltxt{font-size:10px;font-family:sans-serif;fill:#64748b}
.er-node.sel .n-hdr{fill:#1d4ed8}.er-node.sel .n-bg{stroke:#3b82f6;stroke-width:2}.er-edge.hl path{stroke:#2563eb;stroke-width:2;opacity:1}</style><defs>
        <marker id="m-one" markerWidth="14" markerHeight="12" refX="11" refY="6" orient="auto-start-reverse" markerUnits="userSpaceOnUse"><path d="M7 1.5 L7 10.5" stroke="#64748b" stroke-width="1.4" fill="none"/></marker>
        <marker id="m-many" markerWidth="14" markerHeight="12" refX="12" refY="6" orient="auto-start-reverse" markerUnits="userSpaceOnUse"><path d="M2 6 L12 1.5 M2 6 L12 10.5 M2 6 L12 6" stroke="#64748b" stroke-width="1.4" fill="none"/></marker>
        <marker id="m-one-hl" markerWidth="14" markerHeight="12" refX="11" refY="6" orient="auto-start-reverse" markerUnits="userSpaceOnUse"><path d="M7 1.5 L7 10.5" stroke="#2563eb" stroke-width="1.8" fill="none"/></marker>
        <marker id="m-many-hl" markerWidth="14" markerHeight="12" refX="12" refY="6" orient="auto-start-reverse" markerUnits="userSpaceOnUse"><path d="M2 6 L12 1.5 M2 6 L12 10.5 M2 6 L12 6" stroke="#2563eb" stroke-width="1.8" fill="none"/></marker>
      </defs><g id="er-main"><g id="edge-layer"><g class="er-edge inf" data-source="activity_logs" data-target="users"><path d="M -236 -294 C -140.8 -534,-59.19999999999999 -534,36 -294" marker-start="url(#m-many)" marker-end="url(#m-one)"/></g><g class="er-edge inf hl" data-source="activity_logs" data-target="orders"><path d="M -236 -294 C -223.4 -294,-212.6 -294,-200 -294" marker-start="url(#m-many-hl)" marker-end="url(#m-one-hl)"/></g><g class="er-edge" data-source="addresses" data-target="users"><path d="M 272 -294 C 259.4 -294,248.6 -294,236 -294" marker-start="url(#m-many)" marker-end="url(#m-one)"/></g><g class="er-edge" data-source="categories" data-target="categories"><path d="M -263.20000000000005 104 C -205.20000000000005 104, -205.20000000000005 50, -263.20000000000005 76" marker-start="url(#m-many)" marker-end="url(#m-many)"/></g><g class="er-edge hl" data-source="order_coupons" data-target="orders"><path d="M 74.08155339805832 78 C 26.255922330097142 -24.19999999999999,-14.737475728155317 -111.80000000000001,-62.56310679611649 -214" marker-start="url(#m-many-hl)" marker-end="url(#m-one-hl)"/></g><g class="er-edge" data-source="order_coupons" data-target="coupons"><path d="M 182.00000000000006 118 C 194.60000000000002 118,205.39999999999998 118,217.99999999999994 118" marker-start="url(#m-many)" marker-end="url(#m-one)"/></g><g class="er-edge hl" data-source="order_items" data-target="orders"><path d="M 124.67777777777783 -148 C 81.04055555555558 -176.3563176895307,43.63722222222224 -200.66173285198556,0 -229.01805054151626" marker-start="url(#m-many-hl)" marker-end="url(#m-one-hl)"/></g><g class="er-edge" data-source="order_items" data-target="products"><path d="M 114.40000000000009 -78 C 101.80000000000008 -78,91.00000000000009 -78,78.40000000000008 -78" marker-start="url(#m-many)" marker-end="url(#m-one)"/></g><g class="er-edge hl" data-source="orders" data-target="users"><path d="M 0 -294 C 12.6 -294,23.4 -294,36 -294" marker-start="url(#m-many-hl)" marker-end="url(#m-one-hl)"/></g><g class="er-edge hl" data-source="orders" data-target="addresses"><path d="M 0 -294 C 95.19999999999999 -534,176.8 -534,272 -294" marker-start="url(#m-many-hl)" marker-end="url(#m-one-hl)"/></g><g class="er-edge hl" data-source="payments" data-target="orders"><path d="M -115.89297658862876 234 C -111.17324414715719 77.20000000000002,-107.12775919732441 -57.20000000000002,-102.40802675585284 -214" marker-start="url(#m-many-hl)" marker-end="url(#m-one-hl)"/></g><g class="er-edge" data-source="product_categories" data-target="products"><path d="M -107.65714285714284 78 C -93.59714285714284 51.400000000000006,-81.54571428571425 28.599999999999998,-67.48571428571425 2" marker-start="url(#m-many)" marker-end="url(#m-one)"/></g><g class="er-edge" data-source="product_categories" data-target="categories"><path d="M -225.20000000000002 118 C -237.8 118,-248.60000000000002 118,-261.20000000000005 118" marker-start="url(#m-many)" marker-end="url(#m-one)"/></g><g class="er-edge" data-source="reviews" data-target="products"><path d="M -164.79999999999995 -78 C -152.19999999999996 -78,-141.39999999999995 -78,-128.79999999999995 -78" marker-start="url(#m-many)" marker-end="url(#m-one)"/></g><g class="er-edge" data-source="reviews" data-target="users"><path d="M -164.79999999999995 -128.9268292682927 C -65.65413634840456 -114.89510374164566,-5.414136348404554 -147.9536403270115,36 -239.1219512195122" marker-start="url(#m-many)" marker-end="url(#m-one)"/></g><g class="er-edge hl" data-source="shipments" data-target="orders"><path d="M 95.66020066889634 234 C 37.555050167224096 77.20000000000002,-12.249364548494981 -57.20000000000002,-70.35451505016722 -214" marker-start="url(#m-many-hl)" marker-end="url(#m-one-hl)"/></g></g><g id="node-layer"><g class="er-node" transform="translate(-434,-362)" data-name="activity_logs"><rect x="3" y="3" width="196" height="136" rx="5" ry="5" class="n-shadow"/><rect width="196" height="136" rx="5" ry="5" class="n-bg"/><rect width="196" height="30" rx="5" ry="5" class="n-hdr"/><rect y="26" width="196" height="4" class="n-hdr"/><text x="98" y="16" text-anchor="middle" dominant-baseline="middle" class="n-title">activity_logs</text><text x="168" y="16" text-anchor="middle" dominant-baseline="middle" class="n-mode">⊕<title>Add this table’s related tables to the view (deep dive)</title></text><text x="186" y="16" text-anchor="middle" dominant-baseline="middle" class="n-mode">▤<title>Columns: All (click to cycle for this table only)</title></text><rect x="4" y="36" width="20" height="14" rx="2" class="n-bpk"/><text x="14" y="44" text-anchor="middle" dominant-baseline="middle" class="n-tpk">PK</text><text x="28" y="44" dominant-baseline="middle" class="n-cn">id</text><text x="192" y="44" text-anchor="end" dominant-baseline="middle" class="n-ct">bigint</text><rect x="1" y="53" width="194" height="20" class="n-alt"/><rect x="4" y="56" width="20" height="14" rx="2" class="n-bfk"/><text x="14" y="64" text-anchor="middle" dominant-baseline="middle" class="n-tfk">FK</text><text x="28" y="64" dominant-baseline="middle" class="n-cn">user_id<title>No FK constraint — edge is inferred from the name</title></text><text x="192" y="64" text-anchor="end" dominant-baseline="middle" class="n-ct">bigint</text><rect x="4" y="76" width="20" height="14" rx="2" class="n-bfk"/><text x="14" y="84" text-anchor="middle" dominant-baseline="middle" class="n-tfk">FK</text><text x="28" y="84" dominant-baseline="middle" class="n-cn">order_id</text><text x="192" y="84" text-anchor="end" dominant-baseline="middle" class="n-ct">bigint</text><rect x="1" y="93" width="194" height="20" class="n-alt"/><text x="28" y="104" dominant-baseline="middle" class="n-cn">action</text><text x="192" y="104" text-anchor="end" dominant-baseline="middle" class="n-ct">string</text><text x="28" y="124" dominant-baseline="middle" class="n-cn">created_at</text><text x="192" y="124" text-anchor="end" dominant-baseline="middle" class="n-ct">datetime</text></g><g class="er-node" transform="translate(274,-372)" data-name="addresses"><rect x="3" y="3" width="160" height="156" rx="5" ry="5" class="n-shadow"/><rect width="160" height="156" rx="5" ry="5" class="n-bg"/><rect width="160" height="30" rx="5" ry="5" class="n-hdr"/><rect y="26" width="160" height="4" class="n-hdr"/><text x="80" y="16" text-anchor="middle" dominant-baseline="middle" class="n-title">addresses</text><text x="132" y="16" text-anchor="middle" dominant-baseline="middle" class="n-mode">⊕<title>Add this table’s related tables to the view (deep dive)</title></text><text x="150" y="16" text-anchor="middle" dominant-baseline="middle" class="n-mode">▤<title>Columns: All (click to cycle for this table only)</title></text><rect x="4" y="36" width="20" height="14" rx="2" class="n-bpk"/><text x="14" y="44" text-anchor="middle" dominant-baseline="middle" class="n-tpk">PK</text><text x="28" y="44" dominant-baseline="middle" class="n-cn">id</text><text x="156" y="44" text-anchor="end" dominant-baseline="middle" class="n-ct">bigint</text><rect x="1" y="53" width="158" height="20" class="n-alt"/><rect x="4" y="56" width="20" height="14" rx="2" class="n-bfk"/><text x="14" y="64" text-anchor="middle" dominant-baseline="middle" class="n-tfk">FK</text><text x="28" y="64" dominant-baseline="middle" class="n-cn">user_id</text><text x="156" y="64" text-anchor="end" dominant-baseline="middle" class="n-ct">bigint</text><text x="28" y="84" dominant-baseline="middle" class="n-cn">kind<title>shipping | billing</title></text><text x="156" y="84" text-anchor="end" dominant-baseline="middle" class="n-ct">string</text><rect x="1" y="93" width="158" height="20" class="n-alt"/><text x="28" y="104" dominant-baseline="middle" class="n-cn">line1</text><text x="156" y="104" text-anchor="end" dominant-baseline="middle" class="n-ct">string</text><text x="28" y="124" dominant-baseline="middle" class="n-cn">city</text><text x="156" y="124" text-anchor="end" dominant-baseline="middle" class="n-ct">string</text><rect x="1" y="133" width="158" height="20" class="n-alt"/><text x="28" y="144" dominant-baseline="middle" class="n-cn">country<title>ISO 3166-1 alpha-2</title></text><text x="156" y="144" text-anchor="end" dominant-baseline="middle" class="n-ct">string</text></g><g class="er-node" transform="translate(-437.6,70)" data-name="categories"><rect x="3" y="3" width="174.4" height="96" rx="5" ry="5" class="n-shadow"/><rect width="174.4" height="96" rx="5" ry="5" class="n-bg"/><rect width="174.4" height="30" rx="5" ry="5" class="n-hdr"/><rect y="26" width="174.4" height="4" class="n-hdr"/><text x="87.2" y="16" text-anchor="middle" dominant-baseline="middle" class="n-title">categories</text><text x="146.4" y="16" text-anchor="middle" dominant-baseline="middle" class="n-mode">⊕<title>Add this table’s related tables to the view (deep dive)</title></text><text x="164.4" y="16" text-anchor="middle" dominant-baseline="middle" class="n-mode">▤<title>Columns: All (click to cycle for this table only)</title></text><rect x="4" y="36" width="20" height="14" rx="2" class="n-bpk"/><text x="14" y="44" text-anchor="middle" dominant-baseline="middle" class="n-tpk">PK</text><text x="28" y="44" dominant-baseline="middle" class="n-cn">id</text><text x="170.4" y="44" text-anchor="end" dominant-baseline="middle" class="n-ct">bigint</text><rect x="1" y="53" width="172.4" height="20" class="n-alt"/><rect x="4" y="56" width="20" height="14" rx="2" class="n-bfk"/><text x="14" y="64" text-anchor="middle" dominant-baseline="middle" class="n-tfk">FK</text><text x="28" y="64" dominant-baseline="middle" class="n-cn">parent_id<title>Self-reference: parent category</title></text><text x="170.4" y="64" text-anchor="end" dominant-baseline="middle" class="n-ct">bigint</text><text x="28" y="84" dominant-baseline="middle" class="n-cn">name</text><text x="170.4" y="84" text-anchor="end" dominant-baseline="middle" class="n-ct">string</text></g><g class="er-node" transform="translate(219.99999999999994,60)" data-name="coupons"><rect x="3" y="3" width="217.6" height="116" rx="5" ry="5" class="n-shadow"/><rect width="217.6" height="116" rx="5" ry="5" class="n-bg"/><rect width="217.6" height="30" rx="5" ry="5" class="n-hdr"/><rect y="26" width="217.6" height="4" class="n-hdr"/><text x="108.8" y="16" text-anchor="middle" dominant-baseline="middle" class="n-title">coupons</text><text x="189.6" y="16" text-anchor="middle" dominant-baseline="middle" class="n-mode">⊕<title>Add this table’s related tables to the view (deep dive)</title></text><text x="207.6" y="16" text-anchor="middle" dominant-baseline="middle" class="n-mode">▤<title>Columns: All (click to cycle for this table only)</title></text><rect x="4" y="36" width="20" height="14" rx="2" class="n-bpk"/><text x="14" y="44" text-anchor="middle" dominant-baseline="middle" class="n-tpk">PK</text><text x="28" y="44" dominant-baseline="middle" class="n-cn">id</text><text x="213.6" y="44" text-anchor="end" dominant-baseline="middle" class="n-ct">bigint</text><rect x="1" y="53" width="215.6" height="20" class="n-alt"/><text x="28" y="64" dominant-baseline="middle" class="n-cn">code</text><text x="213.6" y="64" text-anchor="end" dominant-baseline="middle" class="n-ct">string</text><text x="28" y="84" dominant-baseline="middle" class="n-cn">discount_cents</text><text x="213.6" y="84" text-anchor="end" dominant-baseline="middle" class="n-ct">integer</text><rect x="1" y="93" width="215.6" height="20" class="n-alt"/><text x="28" y="104" dominant-baseline="middle" class="n-cn">expires_at</text><text x="213.6" y="104" text-anchor="end" dominant-baseline="middle" class="n-ct">datetime</text></g><g class="er-node" transform="translate(5.600000000000065,80)" data-name="order_coupons"><rect x="3" y="3" width="174.4" height="76" rx="5" ry="5" class="n-shadow"/><rect width="174.4" height="76" rx="5" ry="5" class="n-bg"/><rect width="174.4" height="30" rx="5" ry="5" class="n-hdr"/><rect y="26" width="174.4" height="4" class="n-hdr"/><text x="87.2" y="16" text-anchor="middle" dominant-baseline="middle" class="n-title">order_coupons</text><text x="146.4" y="16" text-anchor="middle" dominant-baseline="middle" class="n-mode">⊕<title>Add this table’s related tables to the view (deep dive)</title></text><text x="164.4" y="16" text-anchor="middle" dominant-baseline="middle" class="n-mode">▤<title>Columns: All (click to cycle for this table only)</title></text><rect x="4" y="36" width="20" height="14" rx="2" class="n-bpk"/><text x="14" y="44" text-anchor="middle" dominant-baseline="middle" class="n-tpk">PK</text><text x="28" y="44" dominant-baseline="middle" class="n-cn">order_id</text><text x="170.4" y="44" text-anchor="end" dominant-baseline="middle" class="n-ct">bigint</text><rect x="1" y="53" width="172.4" height="20" class="n-alt"/><rect x="4" y="56" width="20" height="14" rx="2" class="n-bpk"/><text x="14" y="64" text-anchor="middle" dominant-baseline="middle" class="n-tpk">PK</text><text x="28" y="64" dominant-baseline="middle" class="n-cn">coupon_id</text><text x="170.4" y="64" text-anchor="end" dominant-baseline="middle" class="n-ct">bigint</text></g><g class="er-node" transform="translate(116.40000000000009,-146)" data-name="order_items"><rect x="3" y="3" width="232" height="136" rx="5" ry="5" class="n-shadow"/><rect width="232" height="136" rx="5" ry="5" class="n-bg"/><rect width="232" height="30" rx="5" ry="5" class="n-hdr"/><rect y="26" width="232" height="4" class="n-hdr"/><text x="116" y="16" text-anchor="middle" dominant-baseline="middle" class="n-title">order_items</text><text x="204" y="16" text-anchor="middle" dominant-baseline="middle" class="n-mode">⊕<title>Add this table’s related tables to the view (deep dive)</title></text><text x="222" y="16" text-anchor="middle" dominant-baseline="middle" class="n-mode">▤<title>Columns: All (click to cycle for this table only)</title></text><rect x="4" y="36" width="20" height="14" rx="2" class="n-bpk"/><text x="14" y="44" text-anchor="middle" dominant-baseline="middle" class="n-tpk">PK</text><text x="28" y="44" dominant-baseline="middle" class="n-cn">id</text><text x="228" y="44" text-anchor="end" dominant-baseline="middle" class="n-ct">bigint</text><rect x="1" y="53" width="230" height="20" class="n-alt"/><rect x="4" y="56" width="20" height="14" rx="2" class="n-bfk"/><text x="14" y="64" text-anchor="middle" dominant-baseline="middle" class="n-tfk">FK</text><text x="28" y="64" dominant-baseline="middle" class="n-cn">order_id</text><text x="228" y="64" text-anchor="end" dominant-baseline="middle" class="n-ct">bigint</text><rect x="4" y="76" width="20" height="14" rx="2" class="n-bfk"/><text x="14" y="84" text-anchor="middle" dominant-baseline="middle" class="n-tfk">FK</text><text x="28" y="84" dominant-baseline="middle" class="n-cn">product_id</text><text x="228" y="84" text-anchor="end" dominant-baseline="middle" class="n-ct">bigint</text><rect x="1" y="93" width="230" height="20" class="n-alt"/><text x="28" y="104" dominant-baseline="middle" class="n-cn">quantity</text><text x="228" y="104" text-anchor="end" dominant-baseline="middle" class="n-ct">integer</text><text x="28" y="124" dominant-baseline="middle" class="n-cn">unit_price_cents<title>Price snapshot at purchase time</title></text><text x="228" y="124" text-anchor="end" dominant-baseline="middle" class="n-ct">integer</text></g><g class="er-node sel" transform="translate(-198,-372)" data-name="orders"><rect x="3" y="3" width="196" height="156" rx="5" ry="5" class="n-shadow"/><rect width="196" height="156" rx="5" ry="5" class="n-bg"/><rect width="196" height="30" rx="5" ry="5" class="n-hdr"/><rect y="26" width="196" height="4" class="n-hdr"/><text x="98" y="16" text-anchor="middle" dominant-baseline="middle" class="n-title">orders</text><text x="168" y="16" text-anchor="middle" dominant-baseline="middle" class="n-mode">⊕<title>Add this table’s related tables to the view (deep dive)</title></text><text x="186" y="16" text-anchor="middle" dominant-baseline="middle" class="n-mode">▤<title>Columns: All (click to cycle for this table only)</title></text><rect x="4" y="36" width="20" height="14" rx="2" class="n-bpk"/><text x="14" y="44" text-anchor="middle" dominant-baseline="middle" class="n-tpk">PK</text><text x="28" y="44" dominant-baseline="middle" class="n-cn">id</text><text x="192" y="44" text-anchor="end" dominant-baseline="middle" class="n-ct">bigint</text><rect x="1" y="53" width="194" height="20" class="n-alt"/><rect x="4" y="56" width="20" height="14" rx="2" class="n-bfk"/><text x="14" y="64" text-anchor="middle" dominant-baseline="middle" class="n-tfk">FK</text><text x="28" y="64" dominant-baseline="middle" class="n-cn">user_id</text><text x="192" y="64" text-anchor="end" dominant-baseline="middle" class="n-ct">bigint</text><rect x="4" y="76" width="20" height="14" rx="2" class="n-bfk"/><text x="14" y="84" text-anchor="middle" dominant-baseline="middle" class="n-tfk">FK</text><text x="28" y="84" dominant-baseline="middle" class="n-cn">address_id<title>Ship-to address</title></text><text x="192" y="84" text-anchor="end" dominant-baseline="middle" class="n-ct">bigint</text><rect x="1" y="93" width="194" height="20" class="n-alt"/><text x="28" y="104" dominant-baseline="middle" class="n-cn">state<title>cart | placed | paid | shipped</title></text><text x="192" y="104" text-anchor="end" dominant-baseline="middle" class="n-ct">string</text><text x="28" y="124" dominant-baseline="middle" class="n-cn">total_cents</text><text x="192" y="124" text-anchor="end" dominant-baseline="middle" class="n-ct">integer</text><rect x="1" y="133" width="194" height="20" class="n-alt"/><text x="28" y="144" dominant-baseline="middle" class="n-cn">placed_at</text><text x="192" y="144" text-anchor="end" dominant-baseline="middle" class="n-ct">datetime</text></g><g class="er-node" transform="translate(-219.60000000000002,236)" data-name="payments"><rect x="3" y="3" width="203.20000000000002" height="136" rx="5" ry="5" class="n-shadow"/><rect width="203.20000000000002" height="136" rx="5" ry="5" class="n-bg"/><rect width="203.20000000000002" height="30" rx="5" ry="5" class="n-hdr"/><rect y="26" width="203.20000000000002" height="4" class="n-hdr"/><text x="101.60000000000001" y="16" text-anchor="middle" dominant-baseline="middle" class="n-title">payments</text><text x="175.20000000000002" y="16" text-anchor="middle" dominant-baseline="middle" class="n-mode">⊕<title>Add this table’s related tables to the view (deep dive)</title></text><text x="193.20000000000002" y="16" text-anchor="middle" dominant-baseline="middle" class="n-mode">▤<title>Columns: All (click to cycle for this table only)</title></text><rect x="4" y="36" width="20" height="14" rx="2" class="n-bpk"/><text x="14" y="44" text-anchor="middle" dominant-baseline="middle" class="n-tpk">PK</text><text x="28" y="44" dominant-baseline="middle" class="n-cn">id</text><text x="199.20000000000002" y="44" text-anchor="end" dominant-baseline="middle" class="n-ct">bigint</text><rect x="1" y="53" width="201.20000000000002" height="20" class="n-alt"/><rect x="4" y="56" width="20" height="14" rx="2" class="n-bfk"/><text x="14" y="64" text-anchor="middle" dominant-baseline="middle" class="n-tfk">FK</text><text x="28" y="64" dominant-baseline="middle" class="n-cn">order_id</text><text x="199.20000000000002" y="64" text-anchor="end" dominant-baseline="middle" class="n-ct">bigint</text><text x="28" y="84" dominant-baseline="middle" class="n-cn">provider<title>stripe | paypal | ...</title></text><text x="199.20000000000002" y="84" text-anchor="end" dominant-baseline="middle" class="n-ct">string</text><rect x="1" y="93" width="201.20000000000002" height="20" class="n-alt"/><text x="28" y="104" dominant-baseline="middle" class="n-cn">amount_cents</text><text x="199.20000000000002" y="104" text-anchor="end" dominant-baseline="middle" class="n-ct">integer</text><text x="28" y="124" dominant-baseline="middle" class="n-cn">captured_at</text><text x="199.20000000000002" y="124" text-anchor="end" dominant-baseline="middle" class="n-ct">datetime</text></g><g class="er-node" transform="translate(-223.20000000000002,80)" data-name="product_categories"><rect x="3" y="3" width="188.8" height="76" rx="5" ry="5" class="n-shadow"/><rect width="188.8" height="76" rx="5" ry="5" class="n-bg"/><rect width="188.8" height="30" rx="5" ry="5" class="n-hdr"/><rect y="26" width="188.8" height="4" class="n-hdr"/><text x="94.4" y="16" text-anchor="middle" dominant-baseline="middle" class="n-title">product_categories</text><text x="160.8" y="16" text-anchor="middle" dominant-baseline="middle" class="n-mode">⊕<title>Add this table’s related tables to the view (deep dive)</title></text><text x="178.8" y="16" text-anchor="middle" dominant-baseline="middle" class="n-mode">▤<title>Columns: All (click to cycle for this table only)</title></text><rect x="4" y="36" width="20" height="14" rx="2" class="n-bpk"/><text x="14" y="44" text-anchor="middle" dominant-baseline="middle" class="n-tpk">PK</text><text x="28" y="44" dominant-baseline="middle" class="n-cn">product_id</text><text x="184.8" y="44" text-anchor="end" dominant-baseline="middle" class="n-ct">bigint</text><rect x="1" y="53" width="186.8" height="20" class="n-alt"/><rect x="4" y="56" width="20" height="14" rx="2" class="n-bpk"/><text x="14" y="64" text-anchor="middle" dominant-baseline="middle" class="n-tpk">PK</text><text x="28" y="64" dominant-baseline="middle" class="n-cn">category_id</text><text x="184.8" y="64" text-anchor="end" dominant-baseline="middle" class="n-ct">bigint</text></g><g class="er-node" transform="translate(-126.79999999999994,-156)" data-name="products"><rect x="3" y="3" width="203.20000000000002" height="156" rx="5" ry="5" class="n-shadow"/><rect width="203.20000000000002" height="156" rx="5" ry="5" class="n-bg"/><rect width="203.20000000000002" height="30" rx="5" ry="5" class="n-hdr"/><rect y="26" width="203.20000000000002" height="4" class="n-hdr"/><text x="101.60000000000001" y="16" text-anchor="middle" dominant-baseline="middle" class="n-title">products</text><text x="175.20000000000002" y="16" text-anchor="middle" dominant-baseline="middle" class="n-mode">⊕<title>Add this table’s related tables to the view (deep dive)</title></text><text x="193.20000000000002" y="16" text-anchor="middle" dominant-baseline="middle" class="n-mode">▤<title>Columns: All (click to cycle for this table only)</title></text><rect x="4" y="36" width="20" height="14" rx="2" class="n-bpk"/><text x="14" y="44" text-anchor="middle" dominant-baseline="middle" class="n-tpk">PK</text><text x="28" y="44" dominant-baseline="middle" class="n-cn">id</text><text x="199.20000000000002" y="44" text-anchor="end" dominant-baseline="middle" class="n-ct">bigint</text><rect x="1" y="53" width="201.20000000000002" height="20" class="n-alt"/><text x="28" y="64" dominant-baseline="middle" class="n-cn">sku<title>Stock keeping unit</title></text><text x="199.20000000000002" y="64" text-anchor="end" dominant-baseline="middle" class="n-ct">string</text><text x="28" y="84" dominant-baseline="middle" class="n-cn">title</text><text x="199.20000000000002" y="84" text-anchor="end" dominant-baseline="middle" class="n-ct">string</text><rect x="1" y="93" width="201.20000000000002" height="20" class="n-alt"/><text x="28" y="104" dominant-baseline="middle" class="n-cn">price_cents<title>Price in the smallest currency unit</title></text><text x="199.20000000000002" y="104" text-anchor="end" dominant-baseline="middle" class="n-ct">integer</text><text x="28" y="124" dominant-baseline="middle" class="n-cn">stock</text><text x="199.20000000000002" y="124" text-anchor="end" dominant-baseline="middle" class="n-ct">integer</text><rect x="1" y="133" width="201.20000000000002" height="20" class="n-alt"/><text x="28" y="144" dominant-baseline="middle" class="n-cn">discontinued</text><text x="199.20000000000002" y="144" text-anchor="end" dominant-baseline="middle" class="n-ct">integer</text></g><g class="er-node" transform="translate(-348.4,-146)" data-name="reviews"><rect x="3" y="3" width="181.6" height="136" rx="5" ry="5" class="n-shadow"/><rect width="181.6" height="136" rx="5" ry="5" class="n-bg"/><rect width="181.6" height="30" rx="5" ry="5" class="n-hdr"/><rect y="26" width="181.6" height="4" class="n-hdr"/><text x="90.8" y="16" text-anchor="middle" dominant-baseline="middle" class="n-title">reviews</text><text x="153.6" y="16" text-anchor="middle" dominant-baseline="middle" class="n-mode">⊕<title>Add this table’s related tables to the view (deep dive)</title></text><text x="171.6" y="16" text-anchor="middle" dominant-baseline="middle" class="n-mode">▤<title>Columns: All (click to cycle for this table only)</title></text><rect x="4" y="36" width="20" height="14" rx="2" class="n-bpk"/><text x="14" y="44" text-anchor="middle" dominant-baseline="middle" class="n-tpk">PK</text><text x="28" y="44" dominant-baseline="middle" class="n-cn">id</text><text x="177.6" y="44" text-anchor="end" dominant-baseline="middle" class="n-ct">bigint</text><rect x="1" y="53" width="179.6" height="20" class="n-alt"/><rect x="4" y="56" width="20" height="14" rx="2" class="n-bfk"/><text x="14" y="64" text-anchor="middle" dominant-baseline="middle" class="n-tfk">FK</text><text x="28" y="64" dominant-baseline="middle" class="n-cn">product_id</text><text x="177.6" y="64" text-anchor="end" dominant-baseline="middle" class="n-ct">bigint</text><rect x="4" y="76" width="20" height="14" rx="2" class="n-bfk"/><text x="14" y="84" text-anchor="middle" dominant-baseline="middle" class="n-tfk">FK</text><text x="28" y="84" dominant-baseline="middle" class="n-cn">user_id</text><text x="177.6" y="84" text-anchor="end" dominant-baseline="middle" class="n-ct">bigint</text><rect x="1" y="93" width="179.6" height="20" class="n-alt"/><text x="28" y="104" dominant-baseline="middle" class="n-cn">rating<title>1-5 stars</title></text><text x="177.6" y="104" text-anchor="end" dominant-baseline="middle" class="n-ct">integer</text><text x="28" y="124" dominant-baseline="middle" class="n-cn">body</text><text x="177.6" y="124" text-anchor="end" dominant-baseline="middle" class="n-ct">text</text></g><g class="er-node" transform="translate(23.600000000000023,236)" data-name="shipments"><rect x="3" y="3" width="196" height="136" rx="5" ry="5" class="n-shadow"/><rect width="196" height="136" rx="5" ry="5" class="n-bg"/><rect width="196" height="30" rx="5" ry="5" class="n-hdr"/><rect y="26" width="196" height="4" class="n-hdr"/><text x="98" y="16" text-anchor="middle" dominant-baseline="middle" class="n-title">shipments</text><text x="168" y="16" text-anchor="middle" dominant-baseline="middle" class="n-mode">⊕<title>Add this table’s related tables to the view (deep dive)</title></text><text x="186" y="16" text-anchor="middle" dominant-baseline="middle" class="n-mode">▤<title>Columns: All (click to cycle for this table only)</title></text><rect x="4" y="36" width="20" height="14" rx="2" class="n-bpk"/><text x="14" y="44" text-anchor="middle" dominant-baseline="middle" class="n-tpk">PK</text><text x="28" y="44" dominant-baseline="middle" class="n-cn">id</text><text x="192" y="44" text-anchor="end" dominant-baseline="middle" class="n-ct">bigint</text><rect x="1" y="53" width="194" height="20" class="n-alt"/><rect x="4" y="56" width="20" height="14" rx="2" class="n-bfk"/><text x="14" y="64" text-anchor="middle" dominant-baseline="middle" class="n-tfk">FK</text><text x="28" y="64" dominant-baseline="middle" class="n-cn">order_id<title>One shipment per order</title></text><text x="192" y="64" text-anchor="end" dominant-baseline="middle" class="n-ct">bigint</text><text x="28" y="84" dominant-baseline="middle" class="n-cn">carrier</text><text x="192" y="84" text-anchor="end" dominant-baseline="middle" class="n-ct">string</text><rect x="1" y="93" width="194" height="20" class="n-alt"/><text x="28" y="104" dominant-baseline="middle" class="n-cn">tracking_no</text><text x="192" y="104" text-anchor="end" dominant-baseline="middle" class="n-ct">string</text><text x="28" y="124" dominant-baseline="middle" class="n-cn">shipped_at</text><text x="192" y="124" text-anchor="end" dominant-baseline="middle" class="n-ct">datetime</text></g><g class="er-node" transform="translate(38,-362)" data-name="users"><rect x="3" y="3" width="196" height="136" rx="5" ry="5" class="n-shadow"/><rect width="196" height="136" rx="5" ry="5" class="n-bg"/><rect width="196" height="30" rx="5" ry="5" class="n-hdr"/><rect y="26" width="196" height="4" class="n-hdr"/><text x="98" y="16" text-anchor="middle" dominant-baseline="middle" class="n-title">users</text><text x="168" y="16" text-anchor="middle" dominant-baseline="middle" class="n-mode">⊕<title>Add this table’s related tables to the view (deep dive)</title></text><text x="186" y="16" text-anchor="middle" dominant-baseline="middle" class="n-mode">▤<title>Columns: All (click to cycle for this table only)</title></text><rect x="4" y="36" width="20" height="14" rx="2" class="n-bpk"/><text x="14" y="44" text-anchor="middle" dominant-baseline="middle" class="n-tpk">PK</text><text x="28" y="44" dominant-baseline="middle" class="n-cn">id</text><text x="192" y="44" text-anchor="end" dominant-baseline="middle" class="n-ct">bigint</text><rect x="1" y="53" width="194" height="20" class="n-alt"/><text x="28" y="64" dominant-baseline="middle" class="n-cn">email<title>Login e-mail, unique</title></text><text x="192" y="64" text-anchor="end" dominant-baseline="middle" class="n-ct">string</text><text x="28" y="84" dominant-baseline="middle" class="n-cn">name</text><text x="192" y="84" text-anchor="end" dominant-baseline="middle" class="n-ct">string</text><rect x="1" y="93" width="194" height="20" class="n-alt"/><text x="28" y="104" dominant-baseline="middle" class="n-cn">status<title>1: active, 2: suspended</title></text><text x="192" y="104" text-anchor="end" dominant-baseline="middle" class="n-ct">integer</text><text x="28" y="124" dominant-baseline="middle" class="n-cn">created_at</text><text x="192" y="124" text-anchor="end" dominant-baseline="middle" class="n-ct">datetime</text></g></g></g></svg>